<svg xmlns="http://www.w3.org/2000/svg" viewBox="0 0 371.11 100"><g transform="translate(-8.14 3.83) scale(0.75)"><g fill="none" stroke="#1a1614" stroke-width="2.7" stroke-linecap="round" stroke-linejoin="round"><path d="M47 -3.36C46.21 -3.31 45.41 -3.23 44.62 -3.14C43.83 -3.05 43.04 -2.93 42.25 -2.79C41.47 -2.65 40.69 -2.49 39.91 -2.31C39.14 -2.13 38.36 -1.92 37.6 -1.69C36.84 -1.46 36.08 -1.21 35.33 -0.94C34.58 -0.66 33.84 -0.36 33.12 -0.04C32.39 0.29 31.67 0.64 30.97 1.01C30.27 1.39 29.57 1.79 28.9 2.21C28.23 2.64 27.57 3.09 26.93 3.57C26.3 4.04 25.68 4.55 25.08 5.07C24.48 5.6 23.91 6.15 23.35 6.72C22.8 7.3 22.27 7.9 21.77 8.51C21.27 9.13 20.8 9.77 20.35 10.43C19.9 11.09 19.48 11.77 19.08 12.46C18.69 13.15 18.32 13.86 17.98 14.58C17.64 15.3 17.33 16.03 17.04 16.78C16.75 17.52 16.49 18.27 16.25 19.03C16.01 19.79 15.79 20.56 15.6 21.33C15.4 22.11 15.22 22.88 15.06 23.67C14.9 24.45 14.76 25.23 14.63 26.02C14.5 26.81 14.38 27.6 14.28 28.39C14.18 29.18 14.09 29.97 14.02 30.77C13.94 31.56 13.87 32.36 13.82 33.15C13.78 33.95 13.74 34.75 13.72 35.54C13.71 36.34 13.71 37.14 13.75 37.94C13.78 38.73 13.83 39.53 13.92 40.32C14.01 41.11 14.12 41.9 14.26 42.69C14.4 43.47 14.57 44.25 14.78 45.02C14.98 45.79 15.22 46.55 15.48 47.3C15.75 48.05 16.05 48.79 16.38 49.51C16.72 50.24 17.08 50.95 17.47 51.64C17.87 52.33 18.29 53.01 18.74 53.66C19.19 54.32 19.67 54.96 20.17 55.57C20.68 56.19 21.2 56.79 21.75 57.37C22.3 57.94 22.87 58.5 23.46 59.04C24.05 59.57 24.66 60.09 25.28 60.58C25.91 61.08 26.55 61.55 27.21 61.99C27.88 62.43 28.56 62.85 29.26 63.23C29.95 63.61 30.67 63.96 31.4 64.27C32.13 64.59 32.88 64.87 33.63 65.14C34.38 65.4 35.15 65.63 35.91 65.86C36.68 66.08 37.45 66.29 38.22 66.49C38.99 66.7 39.77 66.89 40.54 67.08C41.32 67.28 42.09 67.47 42.87 67.66C43.64 67.85 44.42 68.04 45.19 68.23C45.97 68.43 46.74 68.62 47.51 68.82C48.28 69.02 49.06 69.23 49.83 69.44C50.59 69.66 51.36 69.88 52.13 70.11C52.89 70.34 53.65 70.58 54.41 70.83C55.16 71.08 55.93 71.34 56.66 71.63C57.4 71.93 58.14 72.23 58.82 72.62C59.51 73 60.17 73.44 60.75 73.95C61.34 74.46 61.86 75.06 62.32 75.7C62.77 76.33 63.15 77.04 63.47 77.75C63.79 78.47 64.04 79.23 64.22 79.99C64.39 80.76 64.51 81.55 64.53 82.33C64.56 83.11 64.52 83.92 64.37 84.67C64.22 85.43 63.98 86.19 63.62 86.85C63.26 87.52 62.76 88.14 62.21 88.66C61.65 89.18 60.98 89.62 60.3 89.99C59.61 90.37 58.86 90.66 58.12 90.92C57.37 91.18 56.59 91.38 55.82 91.55C55.04 91.72 54.26 91.85 53.47 91.96C52.68 92.08 51.88 92.15 51.09 92.22C50.29 92.29 49.5 92.34 48.7 92.37C47.9 92.41 47.1 92.44 46.31 92.44C45.51 92.43 44.71 92.44 43.92 92.36C43.13 92.29 42.34 92.2 41.59 92C40.83 91.8 40.1 91.51 39.4 91.16C38.71 90.8 38.07 90.33 37.42 89.87C36.77 89.42 36.15 88.91 35.52 88.42C34.9 87.93 34.26 87.44 33.67 86.91C33.08 86.39 32.5 85.84 31.98 85.25C31.46 84.66 31.02 83.99 30.54 83.36C30.06 82.74 29.62 82.06 29.1 81.48C28.58 80.89 28.01 80.32 27.4 79.84C26.78 79.36 26.11 78.93 25.4 78.6C24.7 78.27 23.94 78 23.19 77.84C22.43 77.67 21.63 77.59 20.86 77.63C20.09 77.66 19.3 77.8 18.57 78.04C17.85 78.28 17.13 78.63 16.5 79.07C15.87 79.5 15.28 80.05 14.79 80.64C14.3 81.23 13.89 81.92 13.57 82.63C13.25 83.33 13.03 84.1 12.88 84.86C12.73 85.63 12.69 86.43 12.65 87.22C12.62 88.01 12.67 88.81 12.68 89.61C12.69 90.4 12.71 91.2 12.72 92C12.73 92.8 12.73 93.6 12.75 94.39C12.77 95.19 12.79 95.99 12.85 96.78C12.91 97.58 12.99 98.37 13.11 99.16C13.23 99.95 13.38 100.73 13.57 101.5C13.77 102.27 14 103.03 14.27 103.78C14.55 104.52 14.87 105.25 15.23 105.96C15.59 106.67 15.99 107.36 16.43 108.02C16.87 108.68 17.36 109.31 17.86 109.92C18.37 110.54 18.91 111.12 19.46 111.7C20.01 112.28 20.58 112.84 21.15 113.39C21.72 113.95 22.31 114.5 22.9 115.03C23.49 115.57 24.08 116.1 24.69 116.62C25.3 117.13 25.92 117.64 26.54 118.13C27.17 118.63 27.81 119.11 28.45 119.58C29.1 120.04 29.76 120.49 30.43 120.93C31.1 121.36 31.78 121.78 32.47 122.18C33.16 122.58 33.86 122.96 34.57 123.32C35.28 123.68 36 124.02 36.74 124.33C37.47 124.65 38.21 124.95 38.96 125.21C39.71 125.48 40.47 125.72 41.24 125.93C42.01 126.15 42.78 126.33 43.56 126.49C44.34 126.64 45.13 126.76 45.92 126.85C46.71 126.94 47.51 127 48.31 127.02C49.1 127.04 49.9 127.03 50.69 126.98C51.49 126.94 52.28 126.85 53.07 126.74C53.86 126.63 54.64 126.49 55.42 126.31C56.2 126.14 56.97 125.94 57.73 125.71C58.49 125.48 59.25 125.22 59.99 124.93C60.74 124.65 61.47 124.34 62.2 124C62.92 123.67 63.63 123.31 64.34 122.94C65.04 122.56 65.73 122.16 66.41 121.74C67.09 121.32 67.76 120.89 68.41 120.43C69.07 119.98 69.71 119.51 70.34 119.02C70.98 118.54 71.6 118.04 72.21 117.52C72.82 117.01 73.42 116.48 74 115.94C74.59 115.4 75.16 114.84 75.73 114.28C76.29 113.72 76.85 113.14 77.39 112.55C77.93 111.97 78.46 111.37 78.98 110.77C79.5 110.16 80 109.54 80.5 108.92C81 108.29 81.48 107.66 81.95 107.01C82.42 106.37 82.88 105.72 83.33 105.06C83.77 104.39 84.2 103.72 84.62 103.04C85.04 102.36 85.44 101.67 85.83 100.98C86.21 100.28 86.58 99.57 86.94 98.86C87.29 98.14 87.62 97.42 87.94 96.68C88.25 95.95 88.55 95.21 88.81 94.46C89.08 93.71 89.33 92.95 89.55 92.18C89.76 91.42 89.95 90.64 90.09 89.86C90.24 89.08 90.35 88.29 90.42 87.5C90.49 86.7 90.52 85.91 90.51 85.11C90.51 84.32 90.46 83.52 90.37 82.73C90.29 81.94 90.16 81.15 90.01 80.37C89.86 79.59 89.66 78.81 89.45 78.05C89.23 77.28 88.98 76.52 88.7 75.78C88.42 75.03 88.12 74.29 87.79 73.57C87.46 72.84 87.11 72.12 86.74 71.42C86.36 70.72 85.97 70.02 85.55 69.34C85.14 68.66 84.7 68 84.24 67.34C83.79 66.69 83.31 66.05 82.82 65.42C82.32 64.8 81.81 64.19 81.28 63.59C80.74 63 80.19 62.42 79.63 61.86C79.06 61.3 78.47 60.76 77.87 60.24C77.27 59.72 76.64 59.22 76.01 58.74C75.37 58.27 74.71 57.81 74.04 57.38C73.37 56.96 72.68 56.56 71.97 56.2C71.26 55.84 70.53 55.52 69.79 55.24C69.04 54.96 68.28 54.72 67.52 54.5C66.75 54.29 65.97 54.12 65.19 53.94C64.41 53.77 63.63 53.62 62.85 53.46C62.07 53.29 61.28 53.14 60.5 52.97C59.72 52.8 58.94 52.63 58.17 52.43C57.39 52.24 56.62 52.04 55.86 51.81C55.09 51.59 54.33 51.35 53.57 51.09C52.82 50.84 52.07 50.56 51.33 50.27C50.58 49.99 49.84 49.68 49.11 49.36C48.38 49.04 47.65 48.71 46.94 48.35C46.23 47.99 45.52 47.63 44.85 47.21C44.19 46.78 43.53 46.34 42.97 45.8C42.41 45.27 41.91 44.65 41.51 44C41.11 43.34 40.8 42.6 40.56 41.86C40.33 41.11 40.16 40.32 40.1 39.55C40.04 38.78 40.04 37.97 40.2 37.24C40.36 36.51 40.64 35.78 41.06 35.18C41.48 34.57 42.07 34.05 42.7 33.62C43.32 33.19 44.06 32.87 44.79 32.59C45.52 32.31 46.31 32.11 47.08 31.93C47.85 31.75 48.64 31.62 49.43 31.49C50.21 31.37 51.01 31.27 51.8 31.17C52.59 31.08 53.39 30.99 54.18 30.93C54.97 30.87 55.78 30.8 56.56 30.82C57.34 30.85 58.14 30.9 58.89 31.09C59.63 31.27 60.36 31.58 61.05 31.94C61.74 32.3 62.39 32.77 63.02 33.24C63.66 33.71 64.29 34.21 64.86 34.75C65.43 35.29 65.97 35.86 66.44 36.49C66.91 37.11 67.27 37.83 67.68 38.49C68.1 39.16 68.46 39.88 68.94 40.49C69.42 41.09 69.96 41.68 70.57 42.14C71.18 42.61 71.88 42.99 72.6 43.27C73.31 43.55 74.1 43.72 74.86 43.8C75.63 43.88 76.44 43.85 77.2 43.75C77.97 43.64 78.75 43.43 79.47 43.15C80.2 42.87 80.91 42.5 81.56 42.07C82.21 41.64 82.83 41.12 83.36 40.56C83.9 40 84.38 39.36 84.77 38.69C85.16 38.02 85.47 37.28 85.7 36.53C85.94 35.79 86.07 35 86.19 34.22C86.31 33.44 86.36 32.64 86.43 31.84C86.49 31.05 86.54 30.25 86.56 29.45C86.59 28.66 86.61 27.86 86.58 27.06C86.56 26.27 86.51 25.47 86.41 24.68C86.32 23.89 86.19 23.11 86.01 22.33C85.84 21.56 85.62 20.79 85.37 20.03C85.12 19.28 84.82 18.54 84.5 17.81C84.17 17.09 83.81 16.38 83.41 15.69C83.01 15 82.58 14.33 82.12 13.68C81.66 13.03 81.16 12.41 80.65 11.8C80.13 11.2 79.58 10.62 79.02 10.06C78.46 9.49 77.87 8.94 77.29 8.4C76.7 7.86 76.1 7.34 75.49 6.82C74.89 6.3 74.27 5.79 73.65 5.29C73.02 4.8 72.39 4.31 71.74 3.85C71.09 3.38 70.44 2.93 69.76 2.5C69.09 2.07 68.41 1.65 67.72 1.26C67.02 0.87 66.32 0.5 65.6 0.16C64.88 -0.19 64.15 -0.51 63.41 -0.81C62.67 -1.11 61.92 -1.38 61.16 -1.63C60.41 -1.87 59.64 -2.09 58.87 -2.29C58.09 -2.48 57.31 -2.65 56.53 -2.8C55.75 -2.94 54.96 -3.06 54.17 -3.16C53.38 -3.25 52.58 -3.32 51.78 -3.37C50.99 -3.42 50.19 -3.44 49.39 -3.43C48.6 -3.43 47.8 -3.41 47 -3.36Z"/><path d="M47.2 2.25C46.41 2.3 45.61 2.38 44.82 2.49C44.03 2.6 43.25 2.74 42.47 2.9C41.69 3.06 40.91 3.25 40.15 3.47C39.38 3.69 38.62 3.94 37.87 4.22C37.13 4.5 36.39 4.8 35.67 5.14C34.95 5.48 34.24 5.84 33.55 6.24C32.86 6.63 32.18 7.06 31.53 7.52C30.88 7.98 30.24 8.46 29.64 8.98C29.03 9.49 28.45 10.04 27.9 10.61C27.34 11.18 26.82 11.79 26.32 12.41C25.83 13.03 25.36 13.68 24.93 14.34C24.49 15.01 24.09 15.7 23.71 16.4C23.34 17.1 23 17.83 22.68 18.56C22.37 19.29 22.08 20.04 21.82 20.79C21.56 21.54 21.33 22.31 21.11 23.08C20.9 23.84 20.71 24.62 20.54 25.4C20.38 26.18 20.23 26.97 20.1 27.75C19.96 28.54 19.85 29.33 19.75 30.12C19.65 30.91 19.57 31.71 19.5 32.5C19.43 33.3 19.38 34.1 19.36 34.89C19.33 35.69 19.33 36.49 19.36 37.29C19.39 38.08 19.44 38.88 19.54 39.67C19.63 40.46 19.76 41.25 19.92 42.03C20.09 42.81 20.29 43.58 20.52 44.34C20.76 45.1 21.03 45.85 21.34 46.58C21.65 47.32 21.99 48.04 22.37 48.73C22.75 49.43 23.17 50.12 23.61 50.77C24.06 51.43 24.54 52.07 25.04 52.69C25.55 53.3 26.09 53.89 26.65 54.45C27.21 55.02 27.8 55.56 28.41 56.07C29.02 56.58 29.66 57.06 30.32 57.5C30.98 57.94 31.67 58.34 32.38 58.7C33.08 59.06 33.82 59.37 34.56 59.65C35.31 59.94 36.07 60.18 36.83 60.41C37.59 60.64 38.37 60.85 39.14 61.05C39.91 61.26 40.69 61.45 41.46 61.64C42.24 61.83 43.01 62.02 43.79 62.21C44.57 62.4 45.34 62.58 46.12 62.77C46.89 62.96 47.67 63.16 48.44 63.35C49.22 63.55 49.99 63.75 50.76 63.96C51.53 64.17 52.3 64.38 53.07 64.61C53.84 64.83 54.6 65.06 55.36 65.3C56.12 65.54 56.88 65.79 57.64 66.06C58.39 66.33 59.14 66.6 59.87 66.91C60.61 67.22 61.34 67.54 62.03 67.93C62.71 68.32 63.38 68.75 64 69.24C64.61 69.73 65.18 70.3 65.7 70.88C66.23 71.47 66.7 72.12 67.14 72.78C67.58 73.44 67.98 74.13 68.32 74.84C68.67 75.55 68.98 76.29 69.24 77.04C69.49 77.79 69.7 78.57 69.85 79.34C70.01 80.12 70.11 80.91 70.16 81.7C70.21 82.49 70.21 83.29 70.15 84.08C70.08 84.87 69.98 85.66 69.79 86.43C69.61 87.19 69.37 87.96 69.04 88.67C68.72 89.38 68.32 90.07 67.85 90.7C67.39 91.33 66.85 91.92 66.27 92.45C65.69 92.99 65.05 93.47 64.4 93.91C63.74 94.35 63.04 94.74 62.33 95.09C61.62 95.44 60.88 95.74 60.13 96.02C59.39 96.29 58.62 96.52 57.85 96.73C57.08 96.93 56.3 97.1 55.52 97.25C54.74 97.39 53.94 97.51 53.15 97.61C52.36 97.71 51.57 97.78 50.77 97.84C49.97 97.9 49.18 97.95 48.38 97.98C47.58 98.01 46.78 98.04 45.98 98.04C45.19 98.04 44.39 98.03 43.59 97.99C42.8 97.94 42 97.88 41.22 97.74C40.44 97.61 39.65 97.45 38.91 97.2C38.17 96.95 37.44 96.62 36.76 96.24C36.07 95.86 35.43 95.38 34.8 94.9C34.16 94.43 33.56 93.9 32.94 93.4C32.32 92.9 31.69 92.4 31.08 91.89C30.46 91.39 29.82 90.9 29.24 90.37C28.65 89.83 28.08 89.28 27.57 88.68C27.06 88.08 26.64 87.39 26.16 86.78C25.68 86.16 25.26 85.46 24.71 84.97C24.16 84.48 23.51 84.02 22.86 83.84C22.21 83.66 21.42 83.67 20.81 83.89C20.2 84.11 19.6 84.61 19.21 85.17C18.82 85.73 18.61 86.5 18.46 87.24C18.31 87.97 18.34 88.79 18.32 89.58C18.3 90.37 18.32 91.18 18.33 91.97C18.34 92.77 18.34 93.57 18.37 94.37C18.4 95.17 18.44 95.96 18.52 96.76C18.61 97.55 18.72 98.34 18.89 99.11C19.06 99.89 19.27 100.66 19.53 101.4C19.8 102.15 20.12 102.88 20.49 103.58C20.85 104.28 21.28 104.96 21.74 105.61C22.19 106.25 22.71 106.87 23.23 107.47C23.75 108.07 24.3 108.65 24.86 109.22C25.42 109.79 25.99 110.35 26.57 110.9C27.14 111.45 27.73 111.99 28.33 112.52C28.93 113.05 29.54 113.57 30.16 114.06C30.78 114.56 31.42 115.05 32.07 115.51C32.72 115.97 33.38 116.42 34.06 116.84C34.73 117.26 35.42 117.67 36.13 118.04C36.83 118.41 37.55 118.77 38.28 119.09C39.01 119.41 39.75 119.7 40.5 119.97C41.25 120.23 42.02 120.46 42.79 120.65C43.56 120.85 44.34 121.01 45.13 121.13C45.91 121.25 46.71 121.33 47.5 121.38C48.3 121.42 49.1 121.42 49.89 121.39C50.68 121.36 51.48 121.28 52.27 121.17C53.06 121.06 53.84 120.91 54.62 120.73C55.39 120.55 56.16 120.33 56.92 120.09C57.68 119.84 58.42 119.56 59.16 119.26C59.9 118.95 60.62 118.62 61.33 118.26C62.05 117.9 62.75 117.52 63.43 117.12C64.12 116.71 64.79 116.28 65.46 115.84C66.12 115.39 66.76 114.92 67.4 114.44C68.03 113.95 68.65 113.45 69.26 112.94C69.87 112.42 70.47 111.89 71.05 111.34C71.63 110.79 72.2 110.23 72.75 109.66C73.31 109.09 73.85 108.5 74.38 107.9C74.91 107.31 75.43 106.7 75.93 106.08C76.43 105.46 76.92 104.82 77.39 104.18C77.86 103.54 78.32 102.88 78.76 102.22C79.2 101.55 79.63 100.88 80.03 100.19C80.44 99.5 80.83 98.81 81.2 98.1C81.57 97.39 81.92 96.67 82.25 95.95C82.58 95.22 82.88 94.48 83.16 93.74C83.44 92.99 83.71 92.23 83.93 91.47C84.15 90.71 84.35 89.93 84.5 89.15C84.65 88.37 84.76 87.58 84.82 86.79C84.88 86 84.9 85.2 84.87 84.4C84.85 83.61 84.77 82.82 84.66 82.03C84.54 81.24 84.38 80.46 84.19 79.69C83.99 78.92 83.75 78.16 83.48 77.41C83.21 76.66 82.91 75.92 82.57 75.2C82.23 74.48 81.86 73.77 81.47 73.08C81.07 72.39 80.65 71.71 80.2 71.06C79.75 70.4 79.27 69.76 78.77 69.14C78.27 68.52 77.75 67.91 77.2 67.33C76.65 66.75 76.08 66.19 75.5 65.66C74.91 65.12 74.3 64.6 73.67 64.12C73.04 63.63 72.39 63.16 71.72 62.73C71.05 62.3 70.37 61.89 69.66 61.53C68.95 61.17 68.22 60.84 67.48 60.57C66.74 60.29 65.97 60.06 65.2 59.85C64.43 59.65 63.65 59.48 62.87 59.31C62.09 59.14 61.3 59 60.52 58.83C59.74 58.67 58.96 58.51 58.18 58.34C57.4 58.16 56.62 57.98 55.85 57.77C55.08 57.57 54.31 57.36 53.54 57.13C52.78 56.89 52.02 56.65 51.27 56.38C50.51 56.12 49.77 55.84 49.02 55.54C48.28 55.25 47.55 54.94 46.82 54.62C46.09 54.29 45.36 53.96 44.65 53.61C43.93 53.25 43.21 52.89 42.52 52.5C41.83 52.11 41.13 51.72 40.48 51.27C39.83 50.81 39.19 50.33 38.63 49.79C38.07 49.24 37.56 48.63 37.12 47.98C36.68 47.33 36.3 46.63 35.97 45.91C35.64 45.19 35.37 44.44 35.14 43.68C34.91 42.92 34.74 42.14 34.6 41.36C34.47 40.58 34.38 39.78 34.34 38.99C34.31 38.2 34.31 37.39 34.4 36.61C34.48 35.83 34.62 35.04 34.86 34.31C35.1 33.57 35.43 32.84 35.84 32.18C36.25 31.53 36.76 30.91 37.32 30.36C37.87 29.82 38.51 29.33 39.17 28.91C39.83 28.48 40.54 28.12 41.27 27.8C41.99 27.48 42.75 27.23 43.51 27C44.27 26.76 45.05 26.58 45.83 26.41C46.61 26.25 47.4 26.12 48.18 25.99C48.97 25.87 49.77 25.77 50.56 25.68C51.35 25.58 52.15 25.49 52.94 25.42C53.73 25.34 54.53 25.26 55.33 25.22C56.12 25.18 56.92 25.13 57.72 25.16C58.51 25.18 59.31 25.22 60.08 25.36C60.85 25.5 61.62 25.71 62.34 26C63.07 26.29 63.76 26.69 64.43 27.1C65.1 27.51 65.74 28 66.38 28.47C67.03 28.94 67.68 29.41 68.3 29.91C68.92 30.4 69.56 30.88 70.12 31.44C70.68 31.99 71.2 32.58 71.66 33.21C72.12 33.84 72.45 34.59 72.89 35.21C73.33 35.83 73.75 36.52 74.3 36.94C74.86 37.37 75.56 37.69 76.22 37.75C76.88 37.81 77.66 37.62 78.24 37.29C78.83 36.96 79.38 36.38 79.76 35.76C80.14 35.15 80.35 34.37 80.53 33.62C80.71 32.87 80.76 32.06 80.83 31.27C80.91 30.48 80.95 29.68 80.96 28.88C80.98 28.09 80.99 27.29 80.94 26.49C80.9 25.7 80.82 24.9 80.69 24.12C80.55 23.34 80.37 22.56 80.13 21.81C79.9 21.05 79.61 20.31 79.27 19.59C78.94 18.88 78.54 18.18 78.11 17.51C77.68 16.85 77.2 16.22 76.69 15.61C76.18 15 75.62 14.43 75.05 13.87C74.48 13.31 73.88 12.78 73.28 12.26C72.68 11.73 72.07 11.22 71.44 10.72C70.82 10.22 70.19 9.73 69.55 9.26C68.9 8.79 68.25 8.33 67.58 7.89C66.91 7.46 66.24 7.04 65.54 6.64C64.85 6.24 64.15 5.86 63.43 5.51C62.72 5.16 61.99 4.83 61.25 4.54C60.51 4.24 59.76 3.96 59 3.72C58.24 3.48 57.47 3.26 56.7 3.07C55.93 2.89 55.14 2.73 54.36 2.6C53.57 2.47 52.78 2.37 51.98 2.3C51.19 2.24 50.39 2.2 49.59 2.19C48.8 2.18 48 2.2 47.2 2.25Z"/><path d="M47.61 7.88C46.81 7.94 46.01 8.03 45.22 8.17C44.43 8.3 43.64 8.47 42.87 8.68C42.09 8.89 41.32 9.13 40.57 9.41C39.82 9.69 39.08 10.01 38.37 10.36C37.65 10.72 36.95 11.11 36.27 11.54C35.6 11.97 34.94 12.44 34.32 12.94C33.7 13.44 33.1 13.98 32.54 14.55C31.97 15.12 31.44 15.73 30.95 16.36C30.45 16.98 29.99 17.64 29.57 18.32C29.14 19 28.75 19.71 28.4 20.42C28.04 21.14 27.73 21.88 27.44 22.63C27.15 23.38 26.9 24.14 26.67 24.91C26.44 25.68 26.25 26.46 26.07 27.25C25.9 28.03 25.76 28.82 25.63 29.62C25.51 30.41 25.4 31.21 25.32 32.01C25.24 32.81 25.17 33.61 25.14 34.41C25.11 35.22 25.09 36.02 25.12 36.82C25.16 37.62 25.23 38.42 25.35 39.21C25.48 40 25.64 40.8 25.87 41.55C26.1 42.3 26.4 43.11 26.72 43.72C27.04 44.33 27.48 44.99 27.8 45.21C28.13 45.43 28.5 45.38 28.66 45.06C28.83 44.75 28.8 44 28.79 43.32C28.79 42.64 28.67 41.77 28.62 40.98C28.57 40.19 28.52 39.38 28.52 38.57C28.51 37.77 28.53 36.97 28.59 36.17C28.66 35.37 28.76 34.57 28.93 33.79C29.09 33.01 29.31 32.24 29.59 31.5C29.87 30.75 30.22 30.03 30.61 29.34C31.01 28.65 31.47 27.99 31.98 27.37C32.48 26.76 33.04 26.18 33.63 25.65C34.23 25.12 34.87 24.63 35.53 24.2C36.2 23.76 36.91 23.37 37.62 23.02C38.34 22.67 39.09 22.37 39.84 22.1C40.6 21.82 41.37 21.6 42.14 21.39C42.92 21.18 43.71 21.02 44.5 20.86C45.28 20.71 46.08 20.58 46.88 20.46C47.67 20.35 48.47 20.25 49.27 20.15C50.07 20.06 50.87 19.98 51.67 19.9C52.47 19.82 53.27 19.74 54.07 19.68C54.88 19.62 55.68 19.57 56.48 19.55C57.28 19.53 58.09 19.52 58.89 19.57C59.69 19.61 60.49 19.68 61.28 19.82C62.07 19.95 62.85 20.13 63.61 20.37C64.36 20.62 65.1 20.93 65.81 21.29C66.52 21.65 67.2 22.09 67.87 22.52C68.54 22.95 69.19 23.47 69.85 23.88C70.52 24.3 71.23 24.8 71.86 25.02C72.49 25.24 73.2 25.41 73.62 25.22C74.04 25.03 74.33 24.44 74.39 23.87C74.45 23.3 74.25 22.47 73.99 21.79C73.73 21.1 73.29 20.39 72.83 19.75C72.38 19.11 71.82 18.52 71.27 17.95C70.71 17.37 70.1 16.84 69.49 16.32C68.89 15.8 68.26 15.29 67.62 14.8C66.98 14.31 66.34 13.83 65.67 13.37C65.01 12.92 64.34 12.48 63.65 12.06C62.97 11.65 62.26 11.25 61.55 10.89C60.83 10.52 60.1 10.18 59.36 9.87C58.62 9.57 57.87 9.29 57.1 9.04C56.34 8.8 55.56 8.59 54.78 8.42C54 8.24 53.2 8.11 52.41 8.01C51.61 7.91 50.81 7.85 50.01 7.83C49.21 7.8 48.4 7.82 47.61 7.88Z"/><path d="M76.74 78.58C76.49 78.65 76.35 79.26 76.25 79.84C76.14 80.43 76.16 81.32 76.11 82.09C76.06 82.85 76.04 83.67 75.95 84.46C75.87 85.25 75.76 86.04 75.6 86.81C75.44 87.59 75.24 88.36 74.98 89.1C74.73 89.85 74.42 90.58 74.05 91.28C73.69 91.98 73.27 92.65 72.8 93.29C72.34 93.93 71.83 94.53 71.28 95.11C70.74 95.68 70.15 96.22 69.55 96.73C68.94 97.24 68.3 97.72 67.65 98.16C66.99 98.61 66.31 99.02 65.62 99.4C64.93 99.79 64.21 100.14 63.49 100.47C62.76 100.79 62.02 101.08 61.28 101.35C60.53 101.62 59.77 101.85 59 102.07C58.24 102.28 57.46 102.46 56.69 102.62C55.91 102.79 55.12 102.92 54.34 103.04C53.55 103.15 52.76 103.24 51.97 103.32C51.18 103.4 50.39 103.46 49.59 103.51C48.8 103.55 48 103.59 47.21 103.61C46.41 103.63 45.62 103.64 44.82 103.63C44.03 103.62 43.23 103.6 42.44 103.55C41.65 103.49 40.85 103.41 40.07 103.29C39.29 103.16 38.51 103.01 37.75 102.8C36.99 102.59 36.23 102.33 35.51 102.02C34.79 101.7 34.09 101.33 33.42 100.91C32.76 100.49 32.13 100 31.5 99.52C30.87 99.03 30.28 98.48 29.66 98.01C29.04 97.54 28.38 96.99 27.77 96.69C27.15 96.39 26.45 96.12 25.98 96.22C25.51 96.32 25.09 96.77 24.93 97.28C24.77 97.8 24.85 98.61 25.01 99.3C25.17 99.99 25.52 100.74 25.89 101.42C26.26 102.1 26.74 102.75 27.22 103.38C27.7 104 28.24 104.59 28.78 105.17C29.32 105.76 29.88 106.32 30.45 106.88C31.01 107.44 31.59 107.98 32.18 108.51C32.78 109.04 33.38 109.56 34 110.05C34.63 110.55 35.26 111.03 35.92 111.47C36.57 111.92 37.25 112.35 37.93 112.74C38.62 113.13 39.33 113.5 40.05 113.83C40.77 114.15 41.51 114.45 42.26 114.7C43.01 114.95 43.78 115.17 44.55 115.33C45.33 115.5 46.11 115.62 46.9 115.7C47.69 115.77 48.48 115.8 49.27 115.78C50.06 115.76 50.86 115.7 51.64 115.59C52.42 115.48 53.21 115.33 53.97 115.14C54.74 114.95 55.51 114.72 56.25 114.46C57 114.2 57.74 113.9 58.46 113.57C59.18 113.24 59.89 112.88 60.59 112.5C61.28 112.11 61.96 111.7 62.63 111.26C63.29 110.83 63.94 110.37 64.57 109.89C65.21 109.41 65.83 108.91 66.43 108.39C67.03 107.87 67.62 107.34 68.19 106.78C68.76 106.23 69.31 105.66 69.85 105.07C70.39 104.49 70.91 103.88 71.41 103.27C71.91 102.65 72.4 102.02 72.86 101.38C73.33 100.73 73.77 100.08 74.2 99.4C74.62 98.73 75.03 98.05 75.41 97.35C75.79 96.65 76.15 95.94 76.48 95.22C76.82 94.5 77.13 93.77 77.42 93.03C77.7 92.29 77.97 91.54 78.19 90.78C78.41 90.02 78.62 89.25 78.76 88.47C78.9 87.69 79.01 86.9 79.05 86.12C79.09 85.33 79.07 84.53 78.99 83.75C78.91 82.97 78.76 82.16 78.55 81.44C78.33 80.72 78.01 79.89 77.71 79.42C77.41 78.94 76.98 78.51 76.74 78.58Z"/></g><circle cx="54.92" cy="14.06" r="2.9" fill="#ff7733"/></g><path fill="#1a1614" d="M110.08 33.76L106.42 33L109.49 30.67L110.05 30.67L111.78 42.34L110.69 42.54L105.81 34.45L107.21 36.15Q105.74 34.95 104.13 34.37Q102.52 33.79 100.74 33.79Q97.52 33.79 95.92 35.22Q94.32 36.65 94.32 39.04Q94.32 40.66 95.06 41.78Q95.79 42.9 97.05 43.66Q98.3 44.42 99.89 45Q101.48 45.59 103.25 46.17Q104.98 46.8 106.69 47.58Q108.4 48.35 109.84 49.49Q111.27 50.63 112.12 52.36Q112.97 54.09 112.97 56.62Q112.97 60.1 111.24 62.55Q109.52 65 106.54 66.28Q103.56 67.56 99.8 67.56Q97.24 67.56 95.18 67.23Q93.13 66.9 90.95 66.01L88.79 56.6L90.03 56.6L96.65 66.16L92.06 63.19Q94.12 64.34 95.75 64.89Q97.39 65.45 99.22 65.45Q102.11 65.45 104.06 64.68Q106.02 63.9 107.03 62.43Q108.05 60.96 108.05 58.86Q108.05 56.9 107.16 55.62Q106.27 54.34 104.8 53.49Q103.33 52.64 101.59 52.03Q99.85 51.42 98.13 50.76Q96.43 50.15 94.92 49.38Q93.41 48.6 92.25 47.55Q91.1 46.5 90.44 44.98Q89.78 43.45 89.78 41.35Q89.78 38.38 91.22 36.21Q92.67 34.04 95.32 32.86Q97.97 31.68 101.58 31.68Q103.96 31.68 105.97 32.16Q107.97 32.64 110.08 33.76ZM130.5 52.23L130.8 53.93Q127.99 54.64 126.25 55.39Q124.51 56.14 123.55 56.9Q122.58 57.66 122.23 58.51Q121.87 59.36 121.87 60.4Q121.87 62.26 122.82 63.14Q123.77 64.03 125.25 64.03Q126.34 64.03 127.21 63.52Q128.09 63.02 128.62 62.09Q129.15 61.16 129.15 60L129.15 49.85Q129.15 47.92 128.15 46.83Q127.15 45.74 124.97 45.74Q124.08 45.74 123.08 45.93Q122.07 46.12 121.31 46.47L122.46 45.15Q122.35 46.22 122.19 47.11Q122.02 48 121.82 48.63Q121.62 49.26 121.31 49.59Q120.93 50.05 120.25 50.29Q119.56 50.53 118.83 50.53Q117.86 50.53 117.33 50.14Q116.8 49.75 116.8 49.06Q116.8 48.12 117.72 47.12Q118.65 46.12 120.17 45.27Q121.69 44.42 123.55 43.9Q125.4 43.38 127.25 43.38Q129.92 43.38 131.51 44.19Q133.11 45 133.81 46.47Q134.51 47.94 134.51 49.97L134.51 62.38Q134.51 63.14 134.74 63.63Q134.96 64.11 135.38 64.34Q135.8 64.56 136.41 64.56Q137.02 64.56 137.69 64.34Q138.36 64.11 139.07 63.7L139.07 64.89Q137.68 66.34 136.3 66.95Q134.91 67.56 133.57 67.56Q132.1 67.56 131.13 66.92Q130.17 66.29 129.7 65.11Q129.23 63.93 129.2 62.31L129.38 62.18Q129 63.85 128.06 65.06Q127.12 66.26 125.82 66.91Q124.51 67.56 122.96 67.56Q120.1 67.56 118.29 66.04Q116.49 64.51 116.49 61.6Q116.49 60.12 117.06 58.93Q117.63 57.74 119.13 56.66Q120.63 55.58 123.41 54.53Q126.19 53.48 130.5 52.23ZM144.57 46.7L143.6 47.34L139.16 46.24L139.16 45.38L143.93 43.66L145.96 43.86L156.21 43.86L155.76 46.7ZM148.88 64.97L152.89 66.11L152.89 67L140 67L140 66.11L143.48 65L143.48 43.78Q143.48 40.41 144.55 37.9Q145.63 35.39 147.53 33.71Q149.44 32.04 151.89 31.21Q154.33 30.39 157 30.39Q158.45 30.39 159.47 30.61Q160.5 30.84 161.17 31.25Q161.85 31.66 162.16 32.19Q162.48 32.72 162.48 33.33Q162.48 34.42 161.73 35.14Q160.98 35.87 159.94 35.87Q159.26 35.87 158.6 35.39Q157.94 34.9 157.23 34.29Q156.52 33.69 155.67 33.2Q154.82 32.72 153.73 32.72Q152.38 32.72 151.28 33.38Q150.17 34.04 149.53 35.47Q148.88 36.91 148.88 39.27ZM168.1 43.3Q170.81 43.3 172.76 44.44Q174.72 45.59 175.86 47.77Q177 49.95 177.26 53.1L161.14 53.1L161.17 51.32L174.34 50.86L171.88 52.03Q171.7 49.77 171.18 48.26Q170.66 46.75 169.77 45.98Q168.88 45.2 167.54 45.2Q165.91 45.2 164.71 46.12Q163.5 47.03 162.83 48.96Q162.16 50.89 162.16 53.81Q162.16 57.03 163.2 59.21Q164.24 61.39 166.17 62.48Q168.1 63.57 170.73 63.57Q171.9 63.57 172.94 63.31Q173.98 63.04 174.98 62.47Q175.99 61.9 176.87 61.06L177.53 61.77Q176.09 63.75 174.6 65.05Q173.12 66.34 171.47 66.95Q169.82 67.56 167.89 67.56Q164.64 67.56 162.17 66.1Q159.7 64.64 158.28 61.99Q156.86 59.34 156.86 55.79Q156.86 52.39 158.19 49.54Q159.52 46.7 162.03 45Q164.54 43.3 168.1 43.3ZM186.79 54.41L186.79 52.13L204.04 52.13L204.04 54.41ZM211.68 64.72L215.49 66.04L215.49 67L200.9 67L200.9 66.04L205.26 64.77L193.56 37.36L194.88 37.26L184.07 64.74L188.36 66.04L188.36 67L177.55 67L177.55 66.04L181.43 64.72L194.78 31.86L197.42 31.86ZM230.47 66.04L230.47 67L216.37 67L216.37 66.04L220.4 64.77L220.4 34.47L216.37 33.2L216.37 32.24L230.47 32.24L230.47 33.2L226.44 34.47L226.44 64.77ZM237.96 60.2Q239.55 60.2 240.6 61.25Q241.64 62.31 241.64 63.83Q241.64 65.35 240.6 66.4Q239.55 67.46 237.96 67.46Q236.33 67.46 235.3 66.4Q234.28 65.35 234.28 63.83Q234.28 62.31 235.32 61.25Q236.36 60.2 237.96 60.2ZM274.33 45.71L271.1 44.85L271.1 43.86L279.43 43.86L279.43 44.85L276.64 45.74L270.01 67.43L267.63 67.43L259.61 48.96L260.95 48.68L253.39 67.43L251.01 67.43L244.01 45.99L240.94 44.85L240.94 43.86L252.89 43.86L252.89 44.85L249.66 45.84L254.71 62.08L253.52 62.48L260.8 43.38L263.09 43.38L270.98 62L269.78 62.51ZM294.34 52.23L294.64 53.93Q291.83 54.64 290.09 55.39Q288.35 56.14 287.39 56.9Q286.42 57.66 286.07 58.51Q285.71 59.36 285.71 60.4Q285.71 62.26 286.66 63.14Q287.62 64.03 289.09 64.03Q290.18 64.03 291.05 63.52Q291.93 63.02 292.46 62.09Q293 61.16 293 60L293 49.85Q293 47.92 291.99 46.83Q290.99 45.74 288.81 45.74Q287.92 45.74 286.92 45.93Q285.92 46.12 285.16 46.47L286.3 45.15Q286.2 46.22 286.03 47.11Q285.87 48 285.66 48.63Q285.46 49.26 285.16 49.59Q284.77 50.05 284.09 50.29Q283.4 50.53 282.67 50.53Q281.7 50.53 281.17 50.14Q280.64 49.75 280.64 49.06Q280.64 48.12 281.56 47.12Q282.49 46.12 284.01 45.27Q285.54 44.42 287.39 43.9Q289.24 43.38 291.09 43.38Q293.76 43.38 295.36 44.19Q296.95 45 297.65 46.47Q298.35 47.94 298.35 49.97L298.35 62.38Q298.35 63.14 298.58 63.63Q298.81 64.11 299.22 64.34Q299.64 64.56 300.25 64.56Q300.86 64.56 301.53 64.34Q302.21 64.11 302.92 63.7L302.92 64.89Q301.52 66.34 300.14 66.95Q298.76 67.56 297.41 67.56Q295.94 67.56 294.97 66.92Q294.01 66.29 293.54 65.11Q293.07 63.93 293.05 62.31L293.22 62.18Q292.84 63.85 291.9 65.06Q290.97 66.26 289.66 66.91Q288.35 67.56 286.8 67.56Q283.94 67.56 282.14 66.04Q280.33 64.51 280.33 61.6Q280.33 60.12 280.91 58.93Q281.48 57.74 282.97 56.66Q284.47 55.58 287.25 54.53Q290.03 53.48 294.34 52.23ZM311.67 60.43Q311.67 62.05 312.72 62.91Q313.78 63.78 315.68 63.78Q316.67 63.78 317.81 63.57Q318.95 63.37 320.32 62.94L320.32 64.13Q318.47 65.45 317.1 66.18Q315.73 66.9 314.64 67.22Q313.55 67.53 312.51 67.53Q310.68 67.53 309.3 66.86Q307.92 66.19 307.1 64.78Q306.29 63.37 306.29 61.24L306.29 47.69L303.15 45.43L303.15 44.87Q303.65 44.52 304.33 44.08Q305 43.63 305.78 43.11Q306.57 42.59 307.4 42.02Q308.22 41.45 309.08 40.88Q309.95 40.31 310.78 39.75L311.67 39.75L311.67 44.6ZM309.59 46.7L309.59 43.86L319.56 43.86L319.11 46.7ZM334.5 43.3Q336.88 43.3 338.34 43.81Q339.8 44.32 340.45 45.12Q341.1 45.91 341.1 46.73Q341.1 47.54 340.74 48.15Q340.38 48.76 339.78 49.09Q339.17 49.42 338.38 49.42Q337.8 49.42 337.21 49.01Q336.63 48.6 336.03 48Q335.44 47.39 334.83 46.76Q334.22 46.14 333.52 45.75Q332.82 45.36 332.01 45.36Q330.64 45.36 329.44 46.18Q328.23 47.01 327.5 48.76Q326.76 50.51 326.76 53.25Q326.76 56.7 327.74 59.01Q328.71 61.32 330.54 62.45Q332.37 63.57 334.9 63.57Q336.58 63.57 338.04 62.97Q339.5 62.36 340.84 61.06L341.5 61.8Q340.05 63.85 338.61 65.14Q337.16 66.42 335.55 66.99Q333.94 67.56 332.16 67.56Q328.99 67.56 326.61 66.11Q324.22 64.67 322.86 62.05Q321.51 59.44 321.51 55.99Q321.51 53.35 322.41 51.03Q323.31 48.71 325.01 46.97Q326.71 45.23 329.11 44.27Q331.5 43.3 334.5 43.3ZM358.32 66.11L361.7 65.07L361.7 51.75Q361.7 50.33 361.19 49.39Q360.68 48.45 359.64 47.97Q358.6 47.49 357.03 47.49Q355.23 47.49 353.68 48.07Q352.13 48.66 351.24 49.44L350.51 48.68Q352.13 47.06 353.44 46.02Q354.74 44.98 355.89 44.37Q357.03 43.76 358.17 43.53Q359.31 43.3 360.6 43.3Q363.9 43.3 365.51 45.28Q367.13 47.26 367.13 51.47L367.13 65L370.6 66.11L370.6 67L358.32 67ZM355.28 67L342.92 67L342.92 66.11L346.4 65L346.4 36.02Q346.04 35.61 345.51 35.22Q344.97 34.83 344.2 34.38Q343.43 33.94 342.44 33.46L342.44 32.77L351.52 30.39L352 30.39L351.77 37.87L351.77 65L355.28 66.11Z"/></svg>
