<svg xmlns="http://www.w3.org/2000/svg" viewBox="0 0 32 32" width="32" height="32"><style>.s{fill:#1a1614}.r{fill:#253e77}@media (prefers-color-scheme:dark){.s{fill:#f4f4e7}.r{fill:#6a86c2}}</style><path class="s" d="M16.12 8.18L13.58 7.99L15.47 6L16.96 6L17.58 13.88L15.63 13.99L13 9.29L14.32 10.79Q13.43 10.18 12.33 9.9Q11.23 9.63 9.92 9.63Q7.82 9.63 6.77 10.23Q5.73 10.84 5.73 12.18Q5.73 13.07 6.21 13.63Q6.69 14.19 7.52 14.54Q8.35 14.9 9.42 15.16Q10.49 15.42 11.69 15.71Q12.85 16 14.06 16.43Q15.26 16.86 16.26 17.6Q17.25 18.35 17.87 19.55Q18.48 20.74 18.48 22.59Q18.48 25.08 17.25 26.72Q16.01 28.37 13.73 29.18Q11.46 30 8.3 30Q6.33 30 4.75 29.83Q3.17 29.66 1.51 29.11L0.47 22.6L2.28 22.6L6.62 29.01L2.35 26Q3.76 26.67 4.94 26.93Q6.12 27.2 7.62 27.2Q9.61 27.2 10.82 26.85Q12.03 26.5 12.58 25.8Q13.13 25.1 13.13 24.03Q13.13 22.99 12.54 22.35Q11.96 21.71 11.01 21.35Q10.05 20.99 8.89 20.73Q7.72 20.48 6.57 20.19Q5.42 19.92 4.34 19.48Q3.25 19.04 2.41 18.32Q1.57 17.6 1.07 16.47Q0.57 15.34 0.57 13.67Q0.57 11.49 1.69 9.97Q2.82 8.46 4.92 7.67Q7.03 6.87 9.94 6.87Q11.65 6.87 13.12 7.17Q14.58 7.46 16.12 8.18Z"/><path class="r" d="M25.09 13.37L25.09 3.15L25.93 4.62L21.52 6.06L20.98 4.54L26.05 2L28.73 2L28.73 13.37L31.53 13.95L31.53 15L22.15 15L22.15 13.95Z"/></svg>
