<svg xmlns="http://www.w3.org/2000/svg" viewBox="0.05 21.8 601.39 83.5" width="1202.77" height="167"><path fill="#1a1614" d="M45.95 31.85L39.6 30.4L44.9 25.8L45.75 25.8L48.7 48.9L47.5 49.1L38.5 32.85L41.2 36.3Q38.15 33.6 34.2 31.83Q30.25 30.05 25.9 30.05Q19.35 30.05 16.25 33.17Q13.15 36.3 13.15 41.45Q13.15 44.95 14.65 47.33Q16.15 49.7 18.73 51.3Q21.3 52.9 24.58 54.1Q27.85 55.3 31.4 56.55Q34.95 57.8 38.45 59.4Q41.95 61 44.83 63.45Q47.7 65.9 49.43 69.6Q51.15 73.3 51.15 78.8Q51.15 85.35 47.68 90.38Q44.2 95.4 38.4 98.23Q32.6 101.05 25.55 101.05Q20.45 101.05 16.5 100.33Q12.55 99.6 8.35 97.85L4.05 78.85L5.5 78.85L18.2 99L10.55 93.8Q14.7 96.25 18.03 97.63Q21.35 99 25.1 99Q31.05 99 35.28 97.15Q39.5 95.3 41.75 91.8Q44 88.3 44 83.3Q44 78.85 42.18 75.93Q40.35 73 37.38 71.08Q34.4 69.15 30.85 67.78Q27.3 66.4 23.8 65.05Q20.3 63.7 17.2 62.2Q14.1 60.7 11.7 58.65Q9.3 56.6 7.93 53.7Q6.55 50.8 6.55 46.7Q6.55 40.75 9.33 36.45Q12.1 32.15 17.18 29.8Q22.25 27.45 29.15 27.45Q33.9 27.45 37.88 28.5Q41.85 29.55 45.95 31.85ZM89.1 66.7L89.65 68.8Q82.6 71 78.23 73Q73.85 75 71.55 77Q69.25 79 68.4 81.2Q67.55 83.4 67.55 86.05Q67.55 90.35 70.05 92.53Q72.55 94.7 76.15 94.7Q79.05 94.7 81.2 93.58Q83.35 92.45 84.58 90.28Q85.8 88.1 85.8 84.95L85.8 62Q85.8 56.85 83.28 54.2Q80.75 51.55 75.6 51.55Q73.15 51.55 70.68 51.93Q68.2 52.3 66.8 53L69.45 51Q69.3 52.85 68.98 54.83Q68.65 56.8 68.18 58.4Q67.7 60 67.05 60.8Q66.4 61.6 65.08 62.05Q63.75 62.5 62.35 62.5Q60.55 62.5 59.48 61.78Q58.4 61.05 58.4 59.5Q58.4 57.4 60.4 55.33Q62.4 53.25 65.58 51.55Q68.75 49.85 72.43 48.83Q76.1 47.8 79.45 47.8Q85.1 47.8 88.5 49.45Q91.9 51.1 93.45 54.08Q95 57.05 95 61.05L95 90.7Q95 92.35 95.53 93.35Q96.05 94.35 97 94.8Q97.95 95.25 99.15 95.25Q100.85 95.25 102.53 94.7Q104.2 94.15 106 92.9L106 94.25Q102.3 98.65 99.45 99.83Q96.6 101 93.6 101Q90.65 101 88.95 99.68Q87.25 98.35 86.53 95.85Q85.8 93.35 85.65 89.85L85.8 89.85Q84.95 93.05 83.05 95.58Q81.15 98.1 78.45 99.55Q75.75 101 72.5 101Q66.3 101 62.15 97.7Q58 94.4 58 88.1Q58 84.8 59.13 82.28Q60.25 79.75 63.48 77.45Q66.7 75.15 72.88 72.6Q79.05 70.05 89.1 66.7ZM115.9 54.2L113.85 54.9L104.8 53L104.8 51.4L114.45 48.55L116.9 48.8L138.55 48.8L137.75 54.2ZM122.55 97.15L130.7 98.65L130.7 100L105.9 100L105.9 98.65L113.05 97.15L113.05 49.25Q113.05 44.05 114.9 39.75Q116.75 35.45 120.03 32.33Q123.3 29.2 127.7 27.5Q132.1 25.8 137.2 25.8Q140 25.8 142.05 26.27Q144.1 26.75 145.5 27.6Q146.9 28.45 147.58 29.58Q148.25 30.7 148.25 32Q148.25 33.8 147.08 35.22Q145.9 36.65 144 36.65Q143.5 36.65 142.2 35.55Q140.9 34.45 139.05 32.97Q137.2 31.5 134.98 30.4Q132.75 29.3 130.35 29.3Q127.65 29.3 125.93 30.55Q124.2 31.8 123.38 34.33Q122.55 36.85 122.55 40.7ZM162.55 47.8Q167.8 47.8 171.7 49.97Q175.6 52.15 177.9 56.38Q180.2 60.6 180.65 66.8L147.55 66.8L147.55 63.9L175.15 63.9L171.25 65.9Q170.75 60.5 169.48 57.05Q168.2 53.6 166.13 51.93Q164.05 50.25 161.05 50.25Q157 50.25 154.1 52.6Q151.2 54.95 149.65 59.43Q148.1 63.9 148.1 70.25Q148.1 78.6 150.28 83.83Q152.45 89.05 156.6 91.45Q160.75 93.85 166.7 93.85Q169.45 93.85 172.1 93.1Q174.75 92.35 177.08 90.85Q179.4 89.35 181.05 87.1L181.85 87.65Q178.75 92.6 175.63 95.53Q172.5 98.45 169.08 99.73Q165.65 101 161.6 101Q155.1 101 149.88 98.08Q144.65 95.15 141.63 89.43Q138.6 83.7 138.6 75.3Q138.6 67.85 141.43 61.6Q144.25 55.35 149.63 51.58Q155 47.8 162.55 47.8ZM198.55 72.25L198.55 69.25L233.9 69.25L233.9 72.25ZM248.2 96.4L256 98.55L256 100L228.25 100L228.25 98.55L237.35 96.5L212.35 39.9L213.6 39.9L191.35 96.15L200.85 98.55L200.85 100L180.4 100L180.4 98.55L188.05 96L215.45 27.5L217.35 27.5ZM284.15 98.55L284.15 100L255.95 100L255.95 98.55L264.9 96.45L264.9 32L255.95 29.95L255.95 28.5L284.15 28.5L284.15 29.95L275.2 32L275.2 96.45ZM297.7 87.05Q300.8 87.05 302.78 89.05Q304.75 91.05 304.75 94Q304.75 96.9 302.78 98.93Q300.8 100.95 297.7 100.95Q294.65 100.95 292.65 98.93Q290.65 96.9 290.65 94Q290.65 91.05 292.68 89.05Q294.7 87.05 297.7 87.05ZM370.65 51.95L363.2 50.45L363.2 48.8L381.35 48.8L381.35 50.45L374.9 51.9L360.45 101.3L359.15 101.3L339.5 60.05L342.45 60.05L325.35 101.3L324.05 101.3L308.65 52.35L302.25 50.45L302.25 48.8L325.8 48.8L325.8 50.45L318.55 52.25L329.65 89.2L327.35 91.1L342.85 47.3L344.4 47.3L363.7 88.45L361.25 91.1ZM413.2 66.7L413.75 68.8Q406.7 71 402.33 73Q397.95 75 395.65 77Q393.35 79 392.5 81.2Q391.65 83.4 391.65 86.05Q391.65 90.35 394.15 92.53Q396.65 94.7 400.25 94.7Q403.15 94.7 405.3 93.58Q407.45 92.45 408.68 90.28Q409.9 88.1 409.9 84.95L409.9 62Q409.9 56.85 407.38 54.2Q404.85 51.55 399.7 51.55Q397.25 51.55 394.78 51.93Q392.3 52.3 390.9 53L393.55 51Q393.4 52.85 393.08 54.83Q392.75 56.8 392.28 58.4Q391.8 60 391.15 60.8Q390.5 61.6 389.18 62.05Q387.85 62.5 386.45 62.5Q384.65 62.5 383.58 61.78Q382.5 61.05 382.5 59.5Q382.5 57.4 384.5 55.33Q386.5 53.25 389.68 51.55Q392.85 49.85 396.53 48.83Q400.2 47.8 403.55 47.8Q409.2 47.8 412.6 49.45Q416 51.1 417.55 54.08Q419.1 57.05 419.1 61.05L419.1 90.7Q419.1 92.35 419.63 93.35Q420.15 94.35 421.1 94.8Q422.05 95.25 423.25 95.25Q424.95 95.25 426.63 94.7Q428.3 94.15 430.1 92.9L430.1 94.25Q426.4 98.65 423.55 99.83Q420.7 101 417.7 101Q414.75 101 413.05 99.68Q411.35 98.35 410.63 95.85Q409.9 93.35 409.75 89.85L409.9 89.85Q409.05 93.05 407.15 95.58Q405.25 98.1 402.55 99.55Q399.85 101 396.6 101Q390.4 101 386.25 97.7Q382.1 94.4 382.1 88.1Q382.1 84.8 383.23 82.28Q384.35 79.75 387.58 77.45Q390.8 75.15 396.98 72.6Q403.15 70.05 413.2 66.7ZM444.9 86.9Q444.9 90.6 447.23 92.48Q449.55 94.35 453.35 94.35Q455.55 94.35 457.95 93.95Q460.35 93.55 463.55 92.6L463.55 94Q458.9 96.75 456.03 98.28Q453.15 99.8 451.1 100.43Q449.05 101.05 446.8 101.05Q443.95 101.05 441.43 99.75Q438.9 98.45 437.3 95.6Q435.7 92.75 435.7 88.1L435.7 55.2L429.35 51.3L429.35 50.6Q429.85 50.25 430.85 49.63Q431.85 49 433.23 48.1Q434.6 47.2 436.35 46.05Q438.1 44.9 440.15 43.58Q442.2 42.25 444.45 40.8L444.9 40.8L444.9 50.6ZM441.8 54.2L441.8 48.8L462.15 48.8L461.35 54.2ZM491.1 47.8Q495.9 47.8 498.98 48.8Q502.05 49.8 503.5 51.45Q504.95 53.1 504.95 55.05Q504.95 56.6 504.33 57.75Q503.7 58.9 502.58 59.5Q501.45 60.1 499.85 60.1Q499.45 60.1 498.6 59.13Q497.75 58.15 496.53 56.72Q495.3 55.3 493.75 53.85Q492.2 52.4 490.45 51.43Q488.7 50.45 486.8 50.45Q483.15 50.45 480.35 52.55Q477.55 54.65 475.98 59.03Q474.4 63.4 474.4 70.25Q474.4 78.6 476.4 83.83Q478.4 89.05 482.3 91.45Q486.2 93.85 491.95 93.85Q495.95 93.85 499.65 92.18Q503.35 90.5 505.8 87.1L506.55 87.65Q503.6 92.6 500.58 95.53Q497.55 98.45 494.25 99.73Q490.95 101 487.05 101Q480.8 101 475.78 98.08Q470.75 95.15 467.83 89.43Q464.9 83.7 464.9 75.3Q464.9 69.3 466.85 64.28Q468.8 59.25 472.35 55.55Q475.9 51.85 480.68 49.83Q485.45 47.8 491.1 47.8ZM540.75 98.65L547.95 97.15L547.95 65Q547.95 61.65 546.78 59.4Q545.6 57.15 543.2 56.03Q540.8 54.9 537 54.9Q533.05 54.9 529.48 55.97Q525.9 57.05 523.55 58.2L522.9 57.15Q526.8 54.25 529.68 52.4Q532.55 50.55 534.8 49.55Q537.05 48.55 539.05 48.18Q541.05 47.8 543.3 47.8Q550.65 47.8 553.9 51.72Q557.15 55.65 557.15 64.15L557.15 97.15L564.3 98.65L564.3 100L540.75 100ZM531.9 100L508.4 100L508.4 98.65L515.55 97.15L515.55 34.25Q514.9 33.95 513.73 33.42Q512.55 32.9 510.95 32.17Q509.35 31.45 507.4 30.55L507.4 29.65L524.55 25.8L524.75 25.8L524.75 57L524.75 97.15L531.9 98.65Z"/><path fill="#253e77" d="M581.53 65.06L581.53 30.37L583.38 32.32L569.99 36.26L569.3 34.43L586 25.8L589.34 25.8L589.34 65.06L597.44 66.98L597.44 68.4L572.89 68.4L572.89 66.98Z"/></svg>
